<svg width="152" height="122" viewBox="0 0 152 122" fill="none" xmlns="http://www.w3.org/2000/svg">
<path d="M139.333 96.5833V111.833H12.666V96.5833C12.666 93.7875 15.516 91.5 18.9993 91.5H132.999C136.483 91.5 139.333 93.7875 139.333 96.5833Z" fill="#FC7949" stroke="#FC7949" stroke-width="1.5" stroke-miterlimit="10" stroke-linecap="round" stroke-linejoin="round"/>
<path d="M44.334 55.9165H31.6673V91.4999H44.334V55.9165ZM69.6673 55.9165H57.0006V91.4999H69.6673V55.9165ZM95.0006 55.9165H82.334V91.4999H95.0006V55.9165ZM120.334 55.9165H107.667V91.4999H120.334V55.9165ZM145.667 115.646H6.33398C3.73732 115.646 1.58398 113.917 1.58398 111.833C1.58398 109.749 3.73732 108.021 6.33398 108.021H145.667C148.264 108.021 150.417 109.749 150.417 111.833C150.417 113.917 148.264 115.646 145.667 115.646ZM135.344 29.229L78.344 10.929C77.0773 10.5224 74.924 10.5224 73.6573 10.929L16.6573 29.229C14.4407 29.9407 12.6673 32.0249 12.6673 33.9565V50.8332C12.6673 53.629 15.5173 55.9165 19.0007 55.9165H133.001C136.484 55.9165 139.334 53.629 139.334 50.8332V33.9565C139.334 32.0249 137.561 29.9407 135.344 29.229ZM76.0006 43.2082C70.744 43.2082 66.5006 39.8024 66.5006 35.5832C66.5006 31.364 70.744 27.9582 76.0006 27.9582C81.2573 27.9582 85.5006 31.364 85.5006 35.5832C85.5006 39.8024 81.2573 43.2082 76.0006 43.2082Z" fill="#FC7949"/>
</svg>
