<svg width="26" height="26" viewBox="0 0 172 144" fill="none" xmlns="http://www.w3.org/2000/svg">
<path d="M121.903 136.141V121.904C121.903 114.351 118.903 107.108 113.563 101.768C108.223 96.4279 100.98 93.4277 93.4275 93.4277H36.4758C28.9236 93.4277 21.6806 96.4279 16.3404 101.768C11.0001 107.108 8 114.351 8 121.904V136.141" stroke="black" stroke-width="14.2379" stroke-linecap="round" stroke-linejoin="round"/>
<path d="M64.9524 64.9517C80.6792 64.9517 93.4282 52.2026 93.4282 36.4758C93.4282 20.7491 80.6792 8 64.9524 8C49.2256 8 36.4766 20.7491 36.4766 36.4758C36.4766 52.2026 49.2256 64.9517 64.9524 64.9517Z" stroke="black" stroke-width="14.2379" stroke-linecap="round" stroke-linejoin="round"/>
<path d="M164.615 136.141V121.903C164.61 115.594 162.51 109.464 158.644 104.478C154.779 99.4914 149.367 95.9299 143.258 94.3525" stroke="" stroke-width="14.2379" stroke-linecap="round" stroke-linejoin="round"/>
<path d="M114.781 8.9248C120.907 10.4931 126.336 14.0554 130.213 19.0502C134.09 24.0449 136.194 30.1879 136.194 36.5108C136.194 42.8336 134.09 48.9766 130.213 53.9714C126.336 58.9661 120.907 62.5284 114.781 64.0967" stroke="" stroke-width="14.2379" stroke-linecap="round" stroke-linejoin="round"/>
</svg>
