<svg width="30" height="30" viewBox="0 0 39 42" fill="none" xmlns="http://www.w3.org/2000/svg">
<g filter="url(#filter0_d_540_1002)">
<path d="M32.667 32.0001V28.6667C32.667 26.8986 31.9646 25.2029 30.7143 23.9526C29.4641 22.7024 27.7684 22 26.0002 22H12.6667C10.8986 22 9.2029 22.7024 7.95264 23.9526C6.70239 25.2029 6 26.8986 6 28.6667V32.0001" stroke="#8A8B9F" stroke-width="3" stroke-linecap="round" stroke-linejoin="round"/>
<path d="M19.3332 15.3335C23.0152 15.3335 26 12.3487 26 8.66675C26 4.9848 23.0152 2 19.3332 2C15.6513 2 12.6665 4.9848 12.6665 8.66675C12.6665 12.3487 15.6513 15.3335 19.3332 15.3335Z" stroke="#8A8B9F" stroke-width="3" stroke-linecap="round" stroke-linejoin="round"/>
</g>
<defs>
<filter id="filter0_d_540_1002" x="0.5" y="0.5" width="37.667" height="41" filterUnits="userSpaceOnUse" color-interpolation-filters="sRGB">
<feFlood flood-opacity="0" result="BackgroundImageFix"/>
<feColorMatrix in="SourceAlpha" type="matrix" values="0 0 0 0 0 0 0 0 0 0 0 0 0 0 0 0 0 0 127 0" result="hardAlpha"/>
<feOffset dy="4"/>
<feGaussianBlur stdDeviation="2"/>
<feComposite in2="hardAlpha" operator="out"/>
<feColorMatrix type="matrix" values="0 0 0 0 0 0 0 0 0 0 0 0 0 0 0 0 0 0 0.25 0"/>
<feBlend mode="normal" in2="BackgroundImageFix" result="effect1_dropShadow_540_1002"/>
<feBlend mode="normal" in="SourceGraphic" in2="effect1_dropShadow_540_1002" result="shape"/>
</filter>
</defs>
</svg>
