<svg width="30" height="30" viewBox="0 0 41 34" fill="none" xmlns="http://www.w3.org/2000/svg">
<path d="M27.0003 2H2V23.6669H27.0003V2Z" stroke="#8A8B9F" stroke-width="3" stroke-linecap="round" stroke-linejoin="round"/>
<path d="M27.0005 10.334H33.6672L38.6673 15.334V23.6675H27.0005V10.334Z" stroke="#8A8B9F" stroke-width="3" stroke-linecap="round" stroke-linejoin="round"/>
<path d="M9.49973 31.9995C11.8009 31.9995 13.6664 30.134 13.6664 27.8327C13.6664 25.5315 11.8009 23.666 9.49973 23.666C7.19851 23.666 5.33301 25.5315 5.33301 27.8327C5.33301 30.134 7.19851 31.9995 9.49973 31.9995Z" stroke="#8A8B9F" stroke-width="3" stroke-linecap="round" stroke-linejoin="round"/>
<path d="M31.1672 31.9995C33.4684 31.9995 35.3339 30.134 35.3339 27.8327C35.3339 25.5315 33.4684 23.666 31.1672 23.666C28.866 23.666 27.0005 25.5315 27.0005 27.8327C27.0005 30.134 28.866 31.9995 31.1672 31.9995Z" stroke="#8A8B9F" stroke-width="3" stroke-linecap="round" stroke-linejoin="round"/>
</svg>
