<svg width="26" height="26" viewBox="0 0 177 216" fill="none" xmlns="http://www.w3.org/2000/svg">
<path d="M107.886 10H29.5771C24.385 10 19.4054 12.0626 15.734 15.734C12.0626 19.4054 10 24.385 10 29.5771V186.194C10 191.386 12.0626 196.366 15.734 200.037C19.4054 203.709 24.385 205.771 29.5771 205.771H147.04C152.232 205.771 157.212 203.709 160.883 200.037C164.554 196.366 166.617 191.386 166.617 186.194V68.7314L107.886 10Z" stroke="black" stroke-width="19.5771" stroke-linecap="round" stroke-linejoin="round"/>
<path d="M107.883 10V68.7314H166.614" stroke="" stroke-width="19.5771" stroke-linecap="round" stroke-linejoin="round"/>
<path d="M127.465 117.674H49.1562" stroke="" stroke-width="19.5771" stroke-linecap="round" stroke-linejoin="round"/>
<path d="M127.465 156.828H49.1562" stroke="" stroke-width="19.5771" stroke-linecap="round" stroke-linejoin="round"/>
<path d="M68.7334 78.5195H58.9448H49.1562" stroke="" stroke-width="19.5771" stroke-linecap="round" stroke-linejoin="round"/>
</svg>
