<svg width="34" height="37" viewBox="0 0 34 37" fill="none" xmlns="http://www.w3.org/2000/svg">
<path d="M7 2L2 8.66667V32C2 32.8841 2.35119 33.7319 2.97631 34.357C3.60143 34.9821 4.44928 35.3333 5.33333 35.3333H28.6667C29.5507 35.3333 30.3986 34.9821 31.0237 34.357C31.6488 33.7319 32 32.8841 32 32V8.66667L27 2H7Z" stroke="#8A8B9F" stroke-width="3" stroke-linecap="round" stroke-linejoin="round"/>
<path d="M2 8.66602H32" stroke="#8A8B9F" stroke-width="3" stroke-linecap="round" stroke-linejoin="round"/>
<path d="M23.6668 15.334C23.6668 17.1021 22.9644 18.7978 21.7142 20.048C20.464 21.2983 18.7683 22.0007 17.0002 22.0007C15.2321 22.0007 13.5364 21.2983 12.2861 20.048C11.0359 18.7978 10.3335 17.1021 10.3335 15.334" stroke="#8A8B9F" stroke-width="3" stroke-linecap="round" stroke-linejoin="round"/>
</svg>
