<svg width="37" height="29" viewBox="0 0 37 29" fill="none" xmlns="http://www.w3.org/2000/svg">
<path d="M1.93924 0.0096914C1.3361 0.111029 0.795985 0.459816 0.437733 0.979325C0.0794802 1.49883 -0.0675687 2.14651 0.0289353 2.77987C0.125439 3.41322 0.457591 3.98039 0.95232 4.35658C1.44705 4.73278 2.06383 4.88719 2.66698 4.78585H9.48952L9.89887 5.9799L11.7637 11.9501L13.6285 17.9203C13.8105 18.5412 14.5837 19.1143 15.175 19.1143H31.0942C31.731 19.1143 32.4587 18.5412 32.6406 17.9203L36.3248 5.9799C36.5068 5.35899 36.2338 4.78585 35.5971 4.78585H15.4024L13.674 1.34702C13.4899 0.952312 13.2057 0.618607 12.8526 0.38265C12.4995 0.146693 12.0912 0.0176366 11.6727 0.00969139L2.57601 0.0096914C2.43984 -0.00323046 2.30284 -0.00323047 2.16666 0.00969139C2.07578 0.00395483 1.98465 0.00395483 1.89376 0.00969139L1.93924 0.0096914ZM16.312 23.8905C15.0385 23.8905 14.0379 24.9413 14.0379 26.2786C14.0379 27.6159 15.0385 28.6667 16.312 28.6667C17.5856 28.6667 18.5862 27.6159 18.5862 26.2786C18.5862 24.9413 17.5856 23.8905 16.312 23.8905ZM29.9571 23.8905C28.6836 23.8905 27.6829 24.9413 27.6829 26.2786C27.6829 27.6159 28.6836 28.6667 29.9571 28.6667C31.2307 28.6667 32.2313 27.6159 32.2313 26.2786C32.2313 24.9413 31.2307 23.8905 29.9571 23.8905Z" fill="#FC7949"/>
</svg>
