<svg width="30" height="30" viewBox="0 0 192 184" fill="none" xmlns="http://www.w3.org/2000/svg">
<path d="M71.8395 175.582C76.2467 175.582 79.8196 172.009 79.8196 167.602C79.8196 163.195 76.2467 159.622 71.8395 159.622C67.4322 159.622 63.8594 163.195 63.8594 167.602C63.8594 172.009 67.4322 175.582 71.8395 175.582Z" stroke="" stroke-width="15.9602" stroke-linecap="round" stroke-linejoin="round"/>
<path d="M159.621 175.582C164.028 175.582 167.601 172.009 167.601 167.602C167.601 163.195 164.028 159.622 159.621 159.622C155.213 159.622 151.641 163.195 151.641 167.602C151.641 172.009 155.213 175.582 159.621 175.582Z" stroke="" stroke-width="15.9602" stroke-linecap="round" stroke-linejoin="round"/>
<path d="M8 8H39.9204L61.307 114.853C62.0367 118.527 64.0355 121.828 66.9533 124.177C69.8711 126.525 73.5221 127.773 77.2672 127.701H154.834C158.579 127.773 162.23 126.525 165.148 124.177C168.065 121.828 170.064 118.527 170.794 114.853L183.562 47.9004H47.9004" stroke="" stroke-width="15.9602" stroke-linecap="round" stroke-linejoin="round"/>
</svg>
