<svg width="26" height="26" viewBox="0 0 157 157" fill="none" xmlns="http://www.w3.org/2000/svg">
<path d="M143.754 106.157C139.258 116.789 132.226 126.157 123.274 133.444C114.321 140.73 103.719 145.712 92.3962 147.955C81.073 150.198 69.3729 149.632 58.3186 146.308C47.2644 142.985 37.1926 137.004 28.984 128.888C20.7753 120.773 14.6795 110.77 11.2297 99.7543C7.77994 88.7387 7.08108 77.0458 9.19428 65.6977C11.3075 54.3497 16.1684 43.692 23.352 34.6566C30.5356 25.6211 39.8233 18.483 50.4029 13.8662" stroke="" stroke-width="14.1334" stroke-linecap="round" stroke-linejoin="round"/>
<path d="M149.331 78.6668C149.331 69.3867 147.503 60.1975 143.952 51.6238C140.4 43.0501 135.195 35.2598 128.633 28.6978C122.071 22.1358 114.281 16.9305 105.707 13.3792C97.1334 9.82785 87.9442 8 78.6641 8V78.6668H149.331Z" stroke="" stroke-width="14.1334" stroke-linecap="round" stroke-linejoin="round"/>
</svg>
