<svg width="30" height="30" viewBox="0 0 34 34" fill="none" xmlns="http://www.w3.org/2000/svg">
<path d="M15.4186 5.16211H4.98191C4.19106 5.16211 3.4326 5.47627 2.87338 6.03549C2.31416 6.59471 2 7.35317 2 8.14402V29.0174C2 29.8083 2.31416 30.5667 2.87338 31.1259C3.4326 31.6851 4.19106 31.9993 4.98191 31.9993H25.8553C26.6461 31.9993 27.4046 31.6851 27.9638 31.1259C28.523 30.5667 28.8372 29.8083 28.8372 29.0174V18.5807" stroke="#8A8B9F" stroke-width="3" stroke-linecap="round" stroke-linejoin="round"/>
<path d="M26.6008 2.92636C27.194 2.33322 27.9984 2 28.8373 2C29.6761 2 30.4806 2.33322 31.0737 2.92636C31.6668 3.5195 32.0001 4.32397 32.0001 5.16279C32.0001 6.00162 31.6668 6.80609 31.0737 7.39923L16.9096 21.5633L10.9458 23.0543L12.4368 17.0904L26.6008 2.92636Z" stroke="#8A8B9F" stroke-width="3" stroke-linecap="round" stroke-linejoin="round"/>
</svg>
