<svg width="854" height="976" viewBox="0 0 854 976" fill="none" xmlns="http://www.w3.org/2000/svg">
<path d="M365.987 0C298.889 0 243.991 54.898 243.991 121.996H121.996C54.898 121.996 0 176.894 0 243.991H853.97C853.97 176.894 799.071 121.996 731.974 121.996H609.978C609.978 54.898 555.08 0 487.983 0H365.987ZM121.996 365.987V952.786C121.996 966.205 131.755 975.965 145.175 975.965H710.015C723.434 975.965 733.194 966.205 733.194 952.786V365.987H611.198V792.972C611.198 827.13 584.359 853.969 550.2 853.969C516.042 853.969 489.203 827.13 489.203 792.972V365.987H367.207V792.972C367.207 827.13 340.368 853.969 306.209 853.969C272.05 853.969 245.211 827.13 245.211 792.972V365.987H123.216H121.996Z" fill="#FF4D4D"/>
</svg>
