<svg width="34" height="29" viewBox="0 0 34 29" fill="none" xmlns="http://www.w3.org/2000/svg">
<path d="M23.8182 26.5451V23.8178C23.8182 22.3712 23.2435 20.9838 22.2206 19.9609C21.1976 18.938 19.8103 18.3633 18.3636 18.3633H7.45454C6.00791 18.3633 4.62052 18.938 3.5976 19.9609C2.57467 20.9838 2 22.3712 2 23.8178V26.5451" stroke="#8A8A8A" stroke-width="3" stroke-linecap="round" stroke-linejoin="round"/>
<path d="M12.9091 12.9091C15.9216 12.9091 18.3637 10.467 18.3637 7.45454C18.3637 4.44208 15.9216 2 12.9091 2C9.89667 2 7.45459 4.44208 7.45459 7.45454C7.45459 10.467 9.89667 12.9091 12.9091 12.9091Z" stroke="#8A8A8A" stroke-width="3" stroke-linecap="round" stroke-linejoin="round"/>
<path d="M32.0001 26.5456V23.8183C31.9992 22.6097 31.5969 21.4357 30.8565 20.4805C30.1161 19.5254 29.0794 18.8432 27.9092 18.541" stroke="#8A8A8A" stroke-width="3" stroke-linecap="round" stroke-linejoin="round"/>
<path d="M22.4546 2.17676C23.6279 2.47717 24.6678 3.15953 25.4105 4.11627C26.1531 5.07301 26.5562 6.2497 26.5562 7.46084C26.5562 8.67198 26.1531 9.84868 25.4105 10.8054C24.6678 11.7622 23.6279 12.4445 22.4546 12.7449" stroke="#8A8A8A" stroke-width="3" stroke-linecap="round" stroke-linejoin="round"/>
</svg>
